<svg id="Layer_1" data-name="Layer 1" xmlns="http://www.w3.org/2000/svg" xmlns:xlink="http://www.w3.org/1999/xlink" viewBox="0 0 1920 1080"><defs><style>.cls-1{fill:none;}.cls-2{clip-path:url(#clip-path);}.cls-3{fill:#ffeaae;}.cls-3,.cls-4,.cls-5,.cls-6,.cls-7,.cls-8{stroke:#000;stroke-miterlimit:10;stroke-width:10px;}.cls-5{fill:#1db59c;}.cls-6{fill:#5438dc;}.cls-7{fill:#db2544;}.cls-8{fill:#ff8200;}</style><clipPath id="clip-path"><rect class="cls-1" width="1920" height="1080"/></clipPath></defs><g class="cls-2"><polygon class="cls-3" points="638.34 157.13 715.27 80.2 782.4 147.34 705.48 224.26 638.34 291.4 571.2 224.26 403.36 56.42 470.5 -10.71 638.34 157.13"/><polygon class="cls-4" points="718.33 19.62 641.4 96.55 574.26 29.41 651.19 -47.52 718.33 -114.65 785.46 -47.52 953.3 120.33 886.17 187.46 718.33 19.62"/><polygon class="cls-4" points="231.13 167.45 308.06 244.37 240.92 311.51 164 234.58 96.86 167.45 164 100.31 331.84 -67.53 398.97 -0.39 231.13 167.45"/><polygon class="cls-5" points="368.64 247.43 291.71 170.51 358.85 103.37 435.77 180.3 502.91 247.43 435.77 314.57 267.93 482.41 200.8 415.27 368.64 247.43"/><polygon class="cls-5" points="803.78 312.17 726.85 389.1 659.72 321.96 736.64 245.04 803.78 177.9 870.91 245.04 1038.76 412.88 971.62 480.01 803.78 312.17"/><polygon class="cls-6" points="723.79 449.68 800.72 372.75 867.85 439.89 790.93 516.81 723.79 583.95 656.65 516.81 488.81 348.97 555.95 281.84 723.79 449.68"/><polygon class="cls-7" points="1281.73 603.74 1204.81 680.66 1137.67 613.53 1214.6 536.6 1281.73 469.46 1348.87 536.6 1516.71 704.44 1449.57 771.58 1281.73 603.74"/><polygon class="cls-4" points="1201.75 741.24 1278.67 664.31 1345.81 731.45 1268.88 808.38 1201.75 875.51 1134.61 808.38 966.77 640.54 1033.91 573.4 1201.75 741.24"/><polygon class="cls-7" points="1093.21 235.5 1170.14 312.43 1103.01 379.57 1026.08 302.64 958.94 235.5 1026.08 168.37 1193.92 0.53 1261.06 67.66 1093.21 235.5"/><polygon class="cls-6" points="1230.72 315.49 1153.79 238.56 1220.93 171.43 1297.86 248.35 1364.99 315.49 1297.86 382.63 1130.02 550.47 1062.88 483.33 1230.72 315.49"/><polygon class="cls-7" points="790.66 761.55 867.59 838.48 800.45 905.61 723.52 828.69 656.38 761.55 723.52 694.41 891.36 526.57 958.5 593.71 790.66 761.55"/><polygon class="cls-5" points="928.16 841.54 851.24 764.61 918.37 697.48 995.3 774.4 1062.43 841.54 995.3 908.67 827.46 1076.52 760.32 1009.38 928.16 841.54"/><polygon class="cls-8" points="174.44 -105.8 251.37 -182.73 318.5 -115.59 241.58 -38.67 174.44 28.47 107.31 -38.67 -60.54 -206.51 6.6 -273.64 174.44 -105.8"/><polygon class="cls-5" points="1799.14 141.22 1876.07 64.3 1943.2 131.43 1866.27 208.36 1799.14 275.5 1732 208.36 1564.16 40.52 1631.3 -26.62 1799.14 141.22"/><polygon class="cls-4" points="1879.13 3.72 1802.2 80.65 1735.06 13.51 1811.99 -63.42 1879.13 -130.55 1946.26 -63.42 2114.1 104.42 2046.97 171.56 1879.13 3.72"/><polygon class="cls-3" points="1391.93 151.55 1468.86 228.47 1401.72 295.61 1324.8 218.68 1257.66 151.55 1324.8 84.41 1492.63 -83.43 1559.77 -16.3 1391.93 151.55"/><polygon class="cls-8" points="1529.43 231.53 1452.51 154.61 1519.64 87.47 1596.57 164.4 1663.71 231.53 1596.57 298.67 1428.73 466.51 1361.59 399.37 1529.43 231.53"/><polygon class="cls-8" points="1335.24 -121.7 1412.17 -198.63 1479.3 -131.49 1402.38 -54.57 1335.24 12.57 1268.1 -54.57 1100.26 -222.41 1167.4 -289.54 1335.24 -121.7"/><polygon class="cls-5" points="1921.31 736.57 1998.24 813.49 1931.1 880.63 1854.17 803.7 1787.04 736.57 1854.17 669.43 2022.02 501.59 2089.15 568.72 1921.31 736.57"/><polygon class="cls-7" points="1944.61 325.81 1867.68 402.74 1800.54 335.6 1877.47 258.68 1944.61 191.54 2011.74 258.68 2179.58 426.52 2112.45 493.65 1944.61 325.81"/><polygon class="cls-6" points="1864.62 463.32 1941.55 386.39 2008.68 453.52 1931.76 530.45 1864.62 597.59 1797.48 530.45 1629.64 362.61 1696.78 295.48 1864.62 463.32"/><polygon class="cls-5" points="1765.69 912.55 1688.77 835.63 1755.9 768.49 1832.83 845.42 1899.97 912.55 1832.83 979.69 1664.99 1147.53 1597.85 1080.39 1765.69 912.55"/><polygon class="cls-8" points="1628.19 832.57 1705.12 909.49 1637.98 976.63 1561.05 899.7 1493.92 832.57 1561.05 765.43 1728.89 597.59 1796.03 664.73 1628.19 832.57"/><polygon class="cls-6" points="1836.03 1165.82 1759.1 1242.75 1691.96 1175.62 1768.89 1098.69 1836.03 1031.55 1903.16 1098.69 2071 1266.53 2003.87 1333.66 1836.03 1165.82"/><polygon class="cls-3" points="1372.13 902.9 1295.2 979.82 1228.06 912.69 1304.99 835.76 1372.13 768.62 1439.26 835.76 1607.1 1003.6 1539.97 1070.74 1372.13 902.9"/><polygon class="cls-8" points="1292.14 1040.4 1369.07 963.47 1436.2 1030.61 1359.27 1107.54 1292.14 1174.67 1225 1107.54 1057.16 939.7 1124.3 872.56 1292.14 1040.4"/><polygon class="cls-7" points="84.63 357.87 7.7 280.94 74.84 213.81 151.77 290.73 218.9 357.87 151.77 425.01 -16.07 592.85 -83.21 525.71 84.63 357.87"/><polygon class="cls-5" points="-52.87 277.88 24.05 354.81 -43.08 421.95 -120.01 345.02 -187.15 277.88 -120.01 210.75 47.83 42.91 114.97 110.04 -52.87 277.88"/><polygon class="cls-6" points="74.97 748.65 151.9 671.72 219.04 738.86 142.11 815.78 74.97 882.92 7.84 815.78 -160 647.94 -92.87 580.8 74.97 748.65"/><polygon class="cls-3" points="154.96 611.14 78.03 688.07 10.9 620.93 87.83 544 154.96 476.87 222.1 544 389.94 711.85 322.8 778.98 154.96 611.14"/><polygon class="cls-6" points="634.57 926.99 557.64 850.06 624.78 782.93 701.71 859.85 768.85 926.99 701.71 994.13 533.87 1161.97 466.73 1094.83 634.57 926.99"/><polygon class="cls-5" points="497.07 847 574 923.93 506.86 991.07 429.93 914.14 362.8 847 429.93 779.87 597.77 612.02 664.91 679.16 497.07 847"/><polygon class="cls-3" points="704.9 1180.26 627.98 1257.19 560.84 1190.05 637.77 1113.12 704.9 1045.99 772.04 1113.12 939.88 1280.96 872.74 1348.1 704.9 1180.26"/><polygon class="cls-7" points="241 917.33 164.08 994.26 96.94 927.12 173.87 850.2 241 783.06 308.14 850.2 475.98 1018.04 408.84 1085.17 241 917.33"/><polygon class="cls-6" points="161.02 1054.84 237.94 977.91 305.08 1045.05 228.15 1121.97 161.02 1189.11 93.88 1121.97 -73.96 954.13 -6.83 887 161.02 1054.84"/><rect class="cls-8" x="938.31" y="-157" width="200.88" height="200.88" transform="translate(264.25 -751.08) rotate(45)"/><rect class="cls-5" x="1475.57" y="444.28" width="200.88" height="200.88" transform="translate(846.78 -954.86) rotate(45)"/><rect class="cls-8" x="348.8" y="436.79" width="200.88" height="200.88" transform="translate(511.46 -160.31) rotate(45)"/><rect class="cls-3" x="903.42" y="1016.44" width="200.88" height="200.88" transform="translate(1083.78 -382.71) rotate(45)"/></g></svg>