<svg id="Layer_1" data-name="Layer 1" xmlns="http://www.w3.org/2000/svg" viewBox="0 0 1920 1080"><defs><style>.cls-1{fill:#0a0903;}.cls-1,.cls-2,.cls-3,.cls-4,.cls-5,.cls-7{stroke:#000;stroke-miterlimit:10;stroke-width:10px;}.cls-2,.cls-8{fill:#ffeaae;}.cls-10,.cls-3{fill:#ff8200;}.cls-4,.cls-6{fill:#db2544;}.cls-5,.cls-9{fill:#5438dc;}.cls-7{fill:none;}</style></defs><polygon class="cls-1" points="471.74 108.77 548.67 31.84 615.81 98.98 538.88 175.91 471.74 243.04 404.61 175.91 236.77 8.06 303.9 -59.07 471.74 108.77"/><polygon class="cls-2" points="551.73 -28.73 474.8 48.19 407.67 -18.94 484.59 -95.87 551.73 -163.01 618.87 -95.87 786.71 71.97 719.57 139.11 551.73 -28.73"/><polygon class="cls-3" points="64.54 119.09 141.46 196.02 74.33 263.15 -2.6 186.23 -69.74 119.09 -2.6 51.95 165.24 -115.89 232.38 -48.75 64.54 119.09"/><polygon class="cls-1" points="202.04 199.08 125.11 122.15 192.25 55.02 269.18 131.94 336.31 199.08 269.18 266.21 101.34 434.06 34.2 366.92 202.04 199.08"/><polygon class="cls-4" points="1115.14 555.38 1038.21 632.31 971.07 565.17 1048 488.24 1115.14 421.11 1182.27 488.24 1350.11 656.09 1282.98 723.22 1115.14 555.38"/><polygon class="cls-5" points="1035.15 692.88 1112.08 615.96 1179.21 683.09 1102.29 760.02 1035.15 827.16 968.01 760.02 800.17 592.18 867.31 525.04 1035.15 692.88"/><polygon class="cls-5" points="926.62 187.15 1003.54 264.07 936.41 331.21 859.48 254.28 792.35 187.15 859.48 120.01 1027.32 -47.83 1094.46 19.31 926.62 187.15"/><polygon class="cls-3" points="1064.12 267.13 987.2 190.21 1054.33 123.07 1131.26 200 1198.39 267.13 1131.26 334.27 963.42 502.11 896.28 434.98 1064.12 267.13"/><polygon class="cls-4" points="1712.53 -44.64 1635.6 32.29 1568.46 -34.84 1645.39 -111.77 1712.53 -178.91 1779.66 -111.77 1947.51 56.07 1880.37 123.2 1712.53 -44.64"/><polygon class="cls-2" points="1225.33 103.19 1302.26 180.12 1235.12 247.25 1158.2 170.33 1091.06 103.19 1158.2 36.05 1326.04 -131.79 1393.17 -64.65 1225.33 103.19"/><polygon class="cls-3" points="1362.84 183.18 1285.91 106.25 1353.05 39.11 1429.97 116.04 1497.11 183.18 1429.97 250.31 1262.13 418.15 1195 351.02 1362.84 183.18"/><polygon class="cls-2" points="2034.07 207.13 2111 284.05 2043.87 351.19 1966.94 274.26 1899.8 207.13 1966.94 139.99 2134.78 -27.85 2201.91 39.28 2034.07 207.13"/><polygon class="cls-4" points="538.3 1131.9 461.38 1208.83 394.24 1141.69 471.17 1064.77 538.3 997.63 605.44 1064.77 773.28 1232.61 706.15 1299.74 538.3 1131.9"/><polygon class="cls-6" points="872.16 31.21 824.07 -9.47 779.16 -59.27 728.12 -104.92 778.74 -150.98 824.59 -199.83 872.16 -250.78 920.2 -200.32 966.59 -152 1010.68 -104.92 970.75 -53.68 920.78 -8.86 872.16 31.21"/><polygon class="cls-7" points="872.16 31.21 824.07 -9.47 779.16 -59.27 728.12 -104.92 778.74 -150.98 824.59 -199.83 872.16 -250.78 920.2 -200.32 966.59 -152 1010.68 -104.92 970.75 -53.68 920.78 -8.86 872.16 31.21"/><polygon class="cls-8" points="837.26 1209.79 790.36 1162.79 741.38 1117.07 694.92 1068.52 741.4 1020.01 787.75 971.67 837.26 931.58 888.03 970.4 930.89 1022.24 981.72 1068.52 936.1 1120 883.98 1162.58 837.26 1209.79"/><polygon class="cls-7" points="837.26 1209.79 790.36 1162.79 741.38 1117.07 694.92 1068.52 741.4 1020.01 787.75 971.67 837.26 931.58 888.03 970.4 930.89 1022.24 981.72 1068.52 936.1 1120 883.98 1162.58 837.26 1209.79"/><polygon class="cls-3" points="1632.54 91.87 1709.47 14.94 1776.6 82.08 1699.68 159 1632.54 226.14 1565.4 159 1397.56 -8.84 1464.7 -75.97 1632.54 91.87"/><polygon class="cls-2" points="1754.71 687.21 1831.64 764.13 1764.51 831.27 1687.58 754.34 1620.44 687.21 1687.58 620.07 1855.42 452.23 1922.56 519.37 1754.71 687.21"/><polygon class="cls-4" points="1892.22 767.2 1815.29 690.27 1882.43 623.13 1959.36 700.06 2026.49 767.2 1959.36 834.33 1791.51 1002.17 1724.38 935.04 1892.22 767.2"/><polygon class="cls-4" points="1589.44 1253.97 1666.37 1177.04 1733.5 1244.18 1656.58 1321.11 1589.44 1388.24 1522.3 1321.11 1354.46 1153.27 1421.6 1086.13 1589.44 1253.97"/><polygon class="cls-3" points="1669.43 1116.47 1592.5 1193.39 1525.36 1126.26 1602.29 1049.33 1669.43 982.19 1736.56 1049.33 1904.4 1217.17 1837.27 1284.31 1669.43 1116.47"/><polygon class="cls-3" points="1182.23 1264.29 1259.16 1341.22 1192.02 1408.36 1115.1 1331.43 1047.96 1264.29 1115.1 1197.16 1282.94 1029.32 1350.07 1096.45 1182.23 1264.29"/><polygon class="cls-2" points="-81.97 308.51 -158.89 231.59 -91.76 164.45 -14.83 241.38 52.31 308.51 -14.83 375.65 -182.67 543.49 -249.81 476.35 -81.97 308.51"/><polygon class="cls-5" points="-91.62 699.29 -14.7 622.36 52.44 689.5 -24.49 766.42 -91.62 833.56 -158.76 766.42 -326.6 598.58 -259.46 531.45 -91.62 699.29"/><polygon class="cls-3" points="-11.64 561.78 -88.56 638.71 -155.7 571.58 -78.77 494.65 -11.64 427.51 55.5 494.65 223.34 662.49 156.21 729.63 -11.64 561.78"/><polygon class="cls-3" points="51.11 1278.73 128.04 1355.65 60.9 1422.79 -16.02 1345.86 -83.16 1278.73 -16.02 1211.59 151.81 1043.75 218.95 1110.89 51.11 1278.73"/><polygon class="cls-4" points="74.41 867.98 -2.52 944.9 -69.66 877.77 7.27 800.84 74.41 733.7 141.54 800.84 309.38 968.68 242.25 1035.82 74.41 867.98"/><polygon class="cls-1" points="-5.58 1005.48 71.35 928.55 138.48 995.69 61.55 1072.62 -5.58 1139.75 -72.72 1072.62 -240.56 904.77 -173.42 837.64 -5.58 1005.48"/><polygon class="cls-9" points="1969.96 1188.18 1920.36 1146.74 1878.73 1093.66 1829.73 1049.77 1875.89 1003.05 1924.71 957.17 1969.96 904.63 2013.34 959.04 2063.21 1003.88 2116.65 1049.77 2068.18 1100.63 2016.82 1143.95 1969.96 1188.18"/><polygon class="cls-7" points="1969.96 1188.18 1920.36 1146.74 1878.73 1093.66 1829.73 1049.77 1875.89 1003.05 1924.71 957.17 1969.96 904.63 2013.34 959.04 2063.21 1003.88 2116.65 1049.77 2068.18 1100.63 2016.82 1143.95 1969.96 1188.18"/><polygon class="cls-6" points="2010.7 38.51 1965.65 -13.5 1918.02 -60.58 1869.68 -105.92 1919.75 -149.51 1965.9 -198.06 2010.7 -249.92 2062 -204.57 2105.24 -153.11 2150.69 -105.92 2109.17 -54.8 2058.57 -10.72 2010.7 38.51"/><polygon class="cls-7" points="2010.7 38.51 1965.65 -13.5 1918.02 -60.58 1869.68 -105.92 1919.75 -149.51 1965.9 -198.06 2010.7 -249.92 2062 -204.57 2105.24 -153.11 2150.69 -105.92 2109.17 -54.8 2058.57 -10.72 2010.7 38.51"/><polygon class="cls-2" points="637.18 261.82 560.25 338.74 493.12 271.61 570.04 194.68 637.18 127.54 704.32 194.68 872.16 362.52 805.02 429.66 637.18 261.82"/><polygon class="cls-4" points="557.19 399.32 634.12 322.39 701.26 389.53 624.33 466.46 557.19 533.59 490.06 466.46 322.22 298.62 389.35 231.48 557.19 399.32"/><polygon class="cls-2" points="624.06 711.19 700.99 788.12 633.85 855.26 556.92 778.33 489.79 711.19 556.92 644.06 724.76 476.22 791.9 543.35 624.06 711.19"/><polygon class="cls-3" points="761.57 791.18 684.64 714.25 751.77 647.12 828.7 724.04 895.84 791.18 828.7 858.32 660.86 1026.16 593.72 959.02 761.57 791.18"/><polygon class="cls-1" points="1778.01 275.45 1701.08 352.38 1633.95 285.25 1710.87 208.32 1778.01 141.18 1845.15 208.32 2012.99 376.16 1945.85 443.3 1778.01 275.45"/><polygon class="cls-3" points="1698.02 412.96 1774.95 336.03 1842.09 403.17 1765.16 480.1 1698.02 547.23 1630.89 480.1 1463.05 312.25 1530.18 245.12 1698.02 412.96"/><polygon class="cls-4" points="2146.93 699.29 2223.86 622.36 2291 689.5 2214.07 766.42 2146.93 833.56 2079.8 766.42 1911.96 598.58 1979.09 531.45 2146.93 699.29"/><polygon class="cls-4" points="1599.1 862.2 1522.17 785.27 1589.31 718.13 1666.23 795.06 1733.37 862.2 1666.23 929.33 1498.39 1097.17 1431.26 1030.04 1599.1 862.2"/><polygon class="cls-3" points="1461.59 782.21 1538.52 859.13 1471.38 926.27 1394.46 849.34 1327.32 782.21 1394.46 715.07 1562.3 547.23 1629.43 614.37 1461.59 782.21"/><polygon class="cls-5" points="1205.53 852.54 1128.6 929.47 1061.46 862.33 1138.39 785.4 1205.53 718.27 1272.66 785.4 1440.51 953.24 1373.37 1020.38 1205.53 852.54"/><polygon class="cls-3" points="1125.54 990.04 1202.47 913.12 1269.6 980.25 1192.68 1057.18 1125.54 1124.32 1058.4 1057.18 890.56 889.34 957.7 822.2 1125.54 990.04"/><polygon class="cls-2" points="467.98 876.63 391.05 799.7 458.18 732.57 535.11 809.5 602.25 876.63 535.11 943.77 367.27 1111.61 300.13 1044.47 467.98 876.63"/><polygon class="cls-4" points="330.47 796.64 407.4 873.57 340.26 940.71 263.33 863.78 196.2 796.64 263.33 729.51 431.18 561.67 498.31 628.8 330.47 796.64"/><polygon class="cls-5" points="330.47 797.64 407.4 874.57 340.26 941.71 263.33 864.78 196.2 797.64 263.33 730.51 431.18 562.67 498.31 629.8 330.47 797.64"/><polygon class="cls-9" points="1409.42 636.75 1363.58 587.57 1316 540.44 1269.67 494.37 1311.08 443.39 1360.54 398.15 1409.42 351.35 1459.67 396.76 1504.39 446.74 1545.83 494.37 1503.91 541.5 1457.95 590.24 1409.42 636.75"/><polygon class="cls-7" points="1409.42 636.75 1363.58 587.57 1316 540.44 1269.67 494.37 1311.08 443.39 1360.54 398.15 1409.42 351.35 1459.67 396.76 1504.39 446.74 1545.83 494.37 1503.91 541.5 1457.95 590.24 1409.42 636.75"/><polygon class="cls-10" points="282.65 627.75 238.31 578.57 188.65 533.53 143.51 486.87 186.75 438.33 232.99 389.87 282.65 347.73 325.93 396.23 378.28 438.58 424.23 486.87 375.5 532.36 329.07 580.63 282.65 627.75"/><polygon class="cls-7" points="282.65 627.75 238.31 578.57 188.65 533.53 143.51 486.87 186.75 438.33 232.99 389.87 282.65 347.73 325.93 396.23 378.28 438.58 424.23 486.87 375.5 532.36 329.07 580.63 282.65 627.75"/></svg>